<?xml version="1.0" standalone="no"?>
<!DOCTYPE svg PUBLIC "-//W3C//DTD SVG 20010904//EN"
 "http://www.w3.org/TR/2001/REC-SVG-20010904/DTD/svg10.dtd">
<svg version="1.0" xmlns="http://www.w3.org/2000/svg"
 width="1024.000000pt" height="888.000000pt" viewBox="0 0 1024.000000 888.000000"
 preserveAspectRatio="xMidYMid meet">

<g transform="translate(0.000000,888.000000) scale(0.100000,-0.100000)"
fill="#000000" stroke="none">
<path d="M5000 7202 c-63 -24 -142 -105 -163 -166 -66 -194 72 -391 273 -390
111 1 201 58 251 161 33 67 34 189 1 250 -55 105 -133 156 -247 160 -48 2 -84
-3 -115 -15z m178 -87 c78 -33 122 -101 122 -190 0 -73 -31 -130 -85 -157 -11
-5 -6 2 12 16 45 37 68 102 54 152 -14 51 -63 109 -113 135 -51 26 -142 37
-163 19 -8 -7 -15 -8 -15 -2 0 15 70 41 113 41 21 1 54 -6 75 -14z m-220 -64
c-12 -15 -29 -37 -36 -47 -10 -16 -11 -15 -1 6 11 24 48 70 57 70 2 0 -7 -13
-20 -29z m82 -81 c0 -5 -7 -10 -16 -10 -8 0 -12 5 -9 10 3 6 10 10 16 10 5 0
9 -4 9 -10z m83 -237 c-7 -2 -21 -2 -30 0 -10 3 -4 5 12 5 17 0 24 -2 18 -5z"/>
<path d="M6385 6945 c-278 -72 -551 -180 -925 -366 -140 -70 -299 -155 -352
-189 l-97 -61 -88 12 c-200 27 -489 -23 -808 -138 -186 -67 -236 -103 -160
-117 44 -9 153 -65 206 -107 22 -17 77 -77 123 -133 169 -205 280 -292 441
-345 17 -5 23 -10 15 -10 -8 -1 -60 -8 -115 -16 -55 -9 -175 -18 -266 -22
-140 -5 -177 -3 -238 12 -85 21 -127 50 -117 83 9 28 108 118 159 143 l39 21
-33 36 c-19 20 -35 39 -36 41 -5 8 -90 -55 -147 -108 -96 -92 -119 -162 -71
-219 68 -81 365 -243 565 -309 187 -62 309 -84 496 -90 307 -10 540 37 799
162 350 169 611 473 768 895 127 341 183 749 116 835 -18 22 -28 25 -82 25
-37 -1 -115 -15 -192 -35z m192 -125 c-19 -210 -347 -577 -765 -856 l-107 -72
-87 87 c-47 48 -122 112 -165 143 -79 57 -246 149 -293 161 -24 7 -23 8 25 39
79 50 395 210 565 286 283 127 553 222 730 257 108 22 104 24 97 -45z m-56
-444 c-172 -615 -479 -974 -973 -1137 -160 -53 -266 -70 -468 -76 -170 -5
-196 -3 -326 20 -148 28 -291 73 -415 131 l-74 35 55 1 c30 1 64 3 75 5 11 1
61 6 112 9 215 15 462 72 676 156 314 123 702 352 957 566 106 89 332 322 380
391 19 28 36 50 38 48 2 -2 -15 -69 -37 -149z m-1546 -145 c205 -42 402 -150
572 -314 84 -81 89 -67 -56 -145 l-94 -50 -96 66 c-256 175 -532 257 -777 232
-96 -10 -135 -20 -78 -20 78 0 361 -66 479 -112 126 -48 349 -173 369 -207 11
-17 -281 -126 -371 -138 -52 -7 -161 25 -258 75 -83 43 -208 159 -301 278 -70
89 -172 189 -204 199 -11 3 -20 10 -20 14 0 15 404 119 525 134 84 11 227 5
310 -12z"/>
<path d="M5616 6407 c-46 -26 -86 -93 -86 -145 0 -46 34 -117 68 -141 72 -50
161 -49 219 2 39 34 53 57 64 107 16 67 -26 151 -92 185 -43 23 -127 19 -173
-8z m91 -63 c-3 -3 -12 -4 -19 -1 -8 3 -5 6 6 6 11 1 17 -2 13 -5z m91 -69
c-3 -3 -9 2 -12 12 -6 14 -5 15 5 6 7 -7 10 -15 7 -18z m-98 -6 c0 -24 -23
-21 -28 4 -2 10 3 17 12 17 10 0 16 -9 16 -21z"/>
<path d="M5490 5896 c0 -2 8 -10 18 -17 15 -13 16 -12 3 4 -13 16 -21 21 -21
13z"/>
<path d="M3601 6917 l-22 -24 3 -854 c3 -840 3 -855 24 -889 26 -45 83 -76
164 -89 178 -28 645 -42 668 -19 16 16 15 53 -1 66 -8 7 -122 15 -285 22 -149
6 -308 17 -352 24 -132 24 -119 -73 -120 878 l0 816 393 -5 c293 -5 398 -3
415 6 24 13 30 59 10 79 -9 9 -121 12 -443 12 l-432 0 -22 -23z"/>
<path d="M4260 6728 c-151 -77 -143 -298 14 -369 129 -58 286 44 286 186 0
147 -168 249 -300 183z m189 -114 c39 -49 21 -138 -33 -166 -16 -8 -15 -5 6
15 52 48 49 128 -5 172 -18 15 -23 22 -10 16 12 -6 31 -23 42 -37z m-41 -4
c17 -11 32 -27 32 -36 0 -13 -4 -12 -28 5 -62 44 -65 68 -4 31z"/>
<path d="M2369 6653 c-33 -17 -67 -45 -86 -71 -53 -70 -63 -122 -63 -322 0
-166 1 -178 21 -196 19 -17 23 -17 47 -3 l27 15 5 194 c6 217 12 242 80 287
l33 23 458 0 459 0 16 25 c15 23 15 27 0 50 l-16 25 -463 0 -463 0 -55 -27z"/>
<path d="M6926 6664 c-21 -21 -20 -47 2 -67 17 -15 63 -17 449 -17 430 0 430
0 463 -22 18 -13 43 -36 54 -51 20 -28 21 -42 26 -473 4 -381 7 -446 20 -454
23 -15 45 -12 64 9 16 17 17 56 14 457 l-3 439 -27 51 c-32 62 -93 116 -147
132 -26 8 -171 12 -469 12 -378 0 -432 -2 -446 -16z"/>
<path d="M3095 6076 c-104 -33 -171 -90 -220 -187 -57 -112 -58 -121 -62 -904
l-4 -720 -216 425 c-119 234 -271 535 -339 670 -99 199 -133 257 -180 308
-101 112 -205 146 -444 147 -148 0 -159 -2 -242 -31 -148 -53 -263 -151 -321
-276 -85 -181 -50 -390 86 -515 121 -111 292 -132 414 -50 98 66 127 200 66
309 -38 67 -88 98 -158 98 -69 0 -97 -20 -93 -68 3 -32 8 -39 46 -57 50 -24
62 -39 62 -81 0 -60 -73 -98 -146 -74 -52 17 -120 83 -140 136 -24 63 -15 168
19 226 49 84 129 138 223 153 87 14 274 -46 274 -89 0 -11 0 -444 1 -961 0
-517 4 -962 8 -989 12 -73 33 -86 137 -86 85 0 143 15 160 41 5 8 7 369 5 803
l-3 788 224 -443 c374 -737 542 -1041 629 -1131 43 -45 48 -48 97 -48 39 0 57
5 79 24 l28 24 0 1129 c0 1031 1 1131 17 1165 22 48 61 73 116 73 37 0 48 -5
73 -33 39 -43 37 -64 -11 -102 -39 -31 -41 -35 -38 -79 l3 -46 47 1 c57 0 105
34 145 102 24 40 28 58 28 122 -1 157 -93 241 -264 239 -36 0 -84 -6 -106 -13z"/>
<path d="M3979 5985 c75 -83 90 -97 54 -50 -17 22 -48 56 -69 75 -25 23 -20
14 15 -25z"/>
<path d="M4084 5857 c16 -20 30 -37 33 -37 7 0 -36 58 -49 66 -7 4 1 -9 16
-29z"/>
<path d="M6612 5743 c-5 -10 -12 -163 -16 -340 -6 -315 -6 -323 14 -343 24
-24 43 -25 64 -4 14 13 16 50 16 247 0 128 3 275 6 327 6 83 4 98 -10 113 -22
22 -63 22 -74 0z"/>
<path d="M4245 5671 c19 -23 75 -66 75 -59 0 2 -21 21 -47 43 -27 21 -39 28
-28 16z"/>
<path d="M4450 5520 c19 -11 40 -19 45 -19 6 0 -6 8 -25 19 -19 11 -39 19 -45
19 -5 0 6 -8 25 -19z"/>
<path d="M4518 5493 c7 -3 16 -2 19 1 4 3 -2 6 -13 5 -11 0 -14 -3 -6 -6z"/>
<path d="M7825 5183 c-11 -3 -30 -14 -42 -26 l-23 -20 0 -813 c0 -785 1 -813
19 -835 18 -23 26 -24 133 -24 74 0 121 4 136 13 l22 13 0 384 0 385 22 0 c39
0 105 -40 156 -94 55 -58 91 -124 152 -276 69 -173 111 -252 162 -306 68 -72
128 -97 249 -102 133 -6 139 -2 139 93 l0 75 -54 35 c-75 48 -106 92 -192 272
-121 253 -211 374 -337 456 -26 17 -46 36 -43 43 3 7 137 164 298 349 161 186
293 342 293 349 0 30 -150 47 -228 25 -21 -5 -54 -24 -74 -42 -36 -32 -277
-299 -450 -500 l-93 -107 0 308 c0 371 10 346 -134 349 -50 1 -100 -1 -111 -4z"/>
<path d="M7110 4880 c-20 -20 -20 -33 -20 -695 0 -652 1 -676 19 -694 37 -37
212 -41 251 -6 20 18 20 32 20 701 0 607 -2 684 -16 698 -12 13 -39 16 -125
16 -96 0 -111 -2 -129 -20z"/>
<path d="M5860 4884 c-71 -12 -101 -26 -110 -50 -6 -15 -10 -284 -10 -669 0
-618 1 -644 19 -666 18 -23 25 -24 136 -24 104 0 118 2 131 19 11 16 14 65 14
233 l0 213 89 0 c49 0 101 3 117 6 29 5 30 4 83 -118 125 -285 196 -348 396
-348 121 0 137 18 118 134 -5 32 -14 43 -58 71 -72 46 -154 139 -199 224 -21
40 -36 73 -34 74 1 1 29 15 61 31 76 38 158 127 187 203 86 222 -19 482 -239
592 -115 59 -200 73 -451 76 -124 2 -236 1 -250 -1z m412 -228 c113 -25 185
-76 224 -161 44 -93 27 -185 -46 -256 -77 -75 -153 -96 -337 -91 l-73 2 0 260
0 260 83 0 c45 0 112 -7 149 -14z"/>
<path d="M3332 4868 c-15 -15 -17 -857 -2 -963 14 -99 75 -219 150 -295 99
-102 253 -159 427 -160 269 0 461 141 518 382 12 51 15 154 15 549 l0 487 -22
6 c-47 12 -215 7 -227 -8 -8 -10 -12 -151 -14 -492 -2 -344 -6 -489 -15 -515
-20 -58 -54 -101 -106 -134 -44 -27 -58 -30 -125 -30 -128 1 -214 53 -263 160
-23 50 -23 54 -26 525 -2 317 -7 479 -14 487 -14 18 -279 18 -296 1z"/>
<path d="M4629 4863 c-18 -21 -25 -163 -9 -192 11 -21 14 -21 171 -15 l159 7
0 -586 0 -587 25 -16 c19 -13 46 -15 135 -12 97 3 114 6 126 22 12 17 14 115
14 598 l0 578 150 -6 149 -7 10 26 c14 37 9 171 -8 190 -12 15 -57 17 -461 17
-404 0 -449 -2 -461 -17z"/>
<path d="M2010 3322 c-8 -3 -18 -10 -22 -16 -4 -6 -8 -142 -8 -302 0 -328 4
-356 68 -439 27 -36 57 -60 106 -85 l69 -35 2786 0 2786 0 68 33 c49 24 79 48
107 83 65 83 70 113 70 444 0 276 -1 293 -19 309 -22 20 -56 14 -70 -12 -5 -9
-8 -138 -6 -287 2 -305 -3 -340 -61 -405 -20 -21 -56 -47 -82 -57 -45 -17
-166 -18 -2793 -17 -2117 1 -2755 4 -2783 14 -49 16 -91 53 -124 109 l-27 46
-3 301 c-3 299 -3 301 -25 311 -12 6 -29 8 -37 5z"/>
<path d="M7777 3122 c-26 -27 -35 -52 -19 -52 19 1 87 47 87 60 0 27 -39 22
-68 -8z"/>
<path d="M2330 3036 c0 -21 5 -25 36 -28 l37 -3 -2 -112 -2 -113 30 0 31 0 0
115 0 115 40 0 c36 0 40 3 40 25 l0 25 -105 0 c-105 0 -105 0 -105 -24z"/>
<path d="M2610 2963 c0 -122 16 -162 74 -181 68 -22 134 5 157 65 5 13 9 67 9
119 l0 95 -27 -3 -28 -3 -2 -92 c-1 -50 -6 -100 -12 -111 -15 -28 -45 -36 -78
-20 -28 13 -28 14 -31 121 l-3 107 -29 0 -30 0 0 -97z"/>
<path d="M3096 3035 c-49 -46 -31 -104 41 -131 60 -22 73 -32 73 -55 0 -27
-44 -35 -92 -15 -47 18 -47 18 -50 -14 -3 -21 4 -26 46 -38 91 -26 156 5 156
76 0 47 -16 64 -85 89 -37 14 -50 24 -50 38 0 15 8 21 32 23 18 2 41 -2 52 -8
17 -8 22 -7 31 11 7 11 10 22 8 24 -40 33 -125 34 -162 0z"/>
<path d="M3380 2933 c-29 -70 -55 -134 -57 -140 -4 -9 5 -13 25 -13 23 0 31 5
36 25 6 24 10 25 75 25 63 0 69 -2 79 -25 8 -17 20 -25 37 -25 14 0 25 3 25 8
0 4 -24 66 -53 137 -50 125 -53 130 -83 133 -31 3 -31 2 -84 -125z m120 -40
c0 -8 -15 -13 -40 -13 -22 0 -40 2 -40 4 0 2 10 26 21 53 l21 48 19 -40 c10
-22 19 -46 19 -52z"/>
<path d="M3670 2920 l0 -140 93 0 c92 0 92 0 92 25 0 24 -2 25 -67 25 l-68 0
0 115 0 115 -25 0 -25 0 0 -140z"/>
<path d="M3910 2970 c0 -55 6 -104 14 -124 40 -96 174 -97 217 -2 13 30 19 65
19 129 l0 87 -30 0 -30 0 0 -95 c0 -89 -2 -98 -26 -121 -19 -20 -31 -24 -51
-19 -44 11 -52 32 -53 138 l0 97 -30 0 -30 0 0 -90z"/>
<path d="M4240 2921 l0 -141 70 0 c39 0 86 6 105 14 67 28 94 114 57 185 -28
57 -61 74 -152 79 l-80 5 0 -142z m129 79 c43 -12 60 -36 61 -83 0 -53 -35
-87 -90 -87 l-40 0 0 90 c0 100 0 100 69 80z"/>
<path d="M4710 2920 l0 -140 100 0 100 0 0 25 c0 24 -2 25 -75 25 l-75 0 0 30
0 30 65 0 c63 0 65 1 65 25 0 24 -2 25 -65 25 l-65 0 0 35 0 35 75 0 c73 0 75
1 75 25 l0 25 -100 0 -100 0 0 -140z"/>
<path d="M4988 2920 l-3 -140 28 0 27 0 0 88 1 87 34 -60 c19 -33 40 -60 46
-60 7 0 26 26 43 57 17 32 33 58 36 58 3 0 4 -38 2 -85 l-3 -85 30 0 31 0 0
140 0 140 -30 0 c-26 0 -34 -8 -67 -65 -20 -36 -40 -65 -43 -65 -3 0 -21 29
-40 65 -30 55 -39 65 -62 65 l-27 0 -3 -140z"/>
<path d="M5350 2921 l0 -141 30 0 c28 0 30 2 30 39 l0 38 51 5 c68 7 102 39
102 98 0 68 -31 90 -132 97 l-81 6 0 -142z m146 68 c35 -29 -2 -79 -58 -79
-27 0 -28 2 -28 51 l0 52 36 -6 c20 -3 42 -11 50 -18z"/>
<path d="M5640 2920 l0 -140 25 0 25 0 0 140 0 140 -25 0 -25 0 0 -140z"/>
<path d="M5780 2920 l0 -140 100 0 100 0 0 25 c0 24 -2 25 -70 25 l-70 0 0 30
0 30 65 0 c63 0 65 1 65 25 0 24 -2 25 -65 25 l-65 0 0 35 0 35 70 0 c68 0 70
1 70 25 l0 25 -100 0 -100 0 0 -140z"/>
<path d="M6050 3035 c0 -23 3 -24 70 -27 l71 -3 -71 -95 c-38 -52 -70 -103
-70 -112 0 -16 12 -18 115 -18 l115 0 0 25 c0 24 -2 25 -75 25 l-76 0 71 91
c42 55 70 101 70 115 0 24 -1 24 -110 24 l-110 0 0 -25z"/>
<path d="M6395 2963 c-22 -54 -48 -117 -57 -140 l-18 -43 29 0 c20 0 31 7 39
25 11 23 17 25 77 25 61 0 66 -2 75 -25 7 -19 17 -25 39 -25 l29 0 -56 140
c-55 138 -56 140 -86 140 -30 0 -33 -5 -71 -97z m95 -29 c11 -26 20 -48 20
-50 0 -2 -20 -4 -45 -4 -25 0 -45 2 -45 5 0 6 43 95 47 95 1 0 11 -21 23 -46z"/>
<path d="M6871 3038 c-5 -13 -30 -73 -55 -135 -25 -61 -46 -114 -46 -117 0 -3
11 -6 25 -6 17 0 29 8 37 25 10 23 16 25 79 25 65 0 69 -1 75 -25 5 -19 13
-25 35 -25 16 0 29 1 29 3 0 1 -24 63 -54 137 -52 130 -55 135 -85 138 -25 3
-33 -1 -40 -20z m62 -101 c9 -23 17 -46 17 -50 0 -4 -18 -7 -40 -7 -22 0 -40
3 -40 7 0 13 35 93 40 93 3 0 13 -19 23 -43z"/>
<path d="M7160 3047 c-13 -7 -35 -28 -48 -47 -33 -48 -28 -146 8 -185 29 -30
88 -48 133 -40 24 5 37 2 46 -9 16 -19 33 -20 49 -4 9 9 8 16 -4 29 -14 16
-14 20 0 48 22 42 20 119 -4 158 -34 57 -119 81 -180 50z m112 -57 c28 -21 39
-60 31 -103 -5 -26 -6 -27 -24 -11 -15 14 -21 15 -34 4 -14 -12 -14 -15 0 -30
15 -16 14 -18 -7 -23 -82 -22 -131 108 -61 163 32 25 63 26 95 0z"/>
<path d="M7437 3053 c-3 -5 -3 -53 -1 -108 4 -114 17 -141 79 -164 32 -13 43
-13 78 0 66 23 81 53 85 174 l4 105 -31 0 -31 0 0 -95 c0 -88 -2 -98 -25 -120
-13 -14 -31 -25 -40 -25 -9 0 -27 11 -40 25 -23 22 -25 32 -25 120 0 94 0 95
-24 95 -14 0 -27 -3 -29 -7z"/>
<path d="M7765 3052 c-3 -3 -5 -65 -5 -139 l0 -133 30 0 31 0 -3 137 c-3 133
-3 136 -26 138 -12 1 -24 -1 -27 -3z"/>
</g>
</svg>
